<svg width="14" height="17" viewBox="0 0 14 17" version="1.1" xmlns="http://www.w3.org/2000/svg" xmlns:xlink="http://www.w3.org/1999/xlink">
<title>Vector</title>
<desc>Created using Figma</desc>
<g id="Canvas" transform="translate(-14390 -1091)">
<g id="Vector">
<use xlink:href="#path0_stroke" transform="translate(14390.8 1092)"/>
</g>
</g>
<defs>
<path id="path0_stroke" d="M 2.25 4.9C 2.25 5.31421 2.58579 5.65 3 5.65C 3.41421 5.65 3.75 5.31421 3.75 4.9L 2.25 4.9ZM 8.65 5C 8.65 5.41421 8.98579 5.75 9.4 5.75C 9.81421 5.75 10.15 5.41421 10.15 5L 8.65 5ZM 6.95001 10.2C 6.95001 9.78574 6.61423 9.44995 6.20001 9.44995C 5.7858 9.44995 5.45001 9.78574 5.45001 10.2L 6.95001 10.2ZM 5.45001 12C 5.45001 12.4142 5.7858 12.75 6.20001 12.75C 6.61423 12.75 6.95001 12.4142 6.95001 12L 5.45001 12ZM 1.5 4.55005C 0.094847 4.55005 -0.75 5.78304 -0.75 6.90005L 0.75 6.90005C 0.75 6.41706 1.10515 6.05005 1.5 6.05005L 1.5 4.55005ZM -0.75 6.90005L -0.75 13.5L 0.75 13.5L 0.75 6.90005L -0.75 6.90005ZM -0.75 13.5C -0.75 14.7799 0.354655 15.65 1.5 15.65L 1.5 14.15C 1.04535 14.15 0.75 13.8202 0.75 13.5L -0.75 13.5ZM 1.5 15.65L 10.9 15.65L 10.9 14.15L 1.5 14.15L 1.5 15.65ZM 10.9 15.65C 12.1793 15.65 13.15 14.7483 13.15 13.5L 11.65 13.5C 11.65 13.8518 11.4207 14.15 10.9 14.15L 10.9 15.65ZM 13.15 13.5L 13.15 6.80005L 11.65 6.80005L 11.65 13.5L 13.15 13.5ZM 13.15 6.80005C 13.15 5.58584 12.1142 4.55005 10.9 4.55005L 10.9 6.05005C 11.2858 6.05005 11.65 6.41426 11.65 6.80005L 13.15 6.80005ZM 10.9 4.55005L 1.5 4.55005L 1.5 6.05005L 10.9 6.05005L 10.9 4.55005ZM 3.75 4.9L 3.75 3.1L 2.25 3.1L 2.25 4.9L 3.75 4.9ZM 3.75 3.1C 3.75 1.82967 4.79859 0.75 6.2 0.75L 6.2 -0.75C 4.00141 -0.75 2.25 0.970332 2.25 3.1L 3.75 3.1ZM 6.2 0.75C 7.58579 0.75 8.65 1.81421 8.65 3.2L 10.15 3.2C 10.15 0.985786 8.41421 -0.75 6.2 -0.75L 6.2 0.75ZM 8.65 3.2L 8.65 5L 10.15 5L 10.15 3.2L 8.65 3.2ZM 5.45001 10.2L 5.45001 12L 6.95001 12L 6.95001 10.2L 5.45001 10.2Z"/>
</defs>
</svg>
